<svg width="149" height="177" viewBox="0 0 149 177" xmlns="http://www.w3.org/2000/svg"><title>cart-green-all</title><g fill="none" fill-rule="evenodd"><path d="M26.769 153.099h16.109v22.577H26.769v-22.577z" fill="#000"/><path d="M26.769 153.099h16.109v22.577H26.769v-22.577z" stroke="#000" stroke-width="1.5" stroke-linecap="round" stroke-linejoin="round"/><path d="M66.518 15.026H6.085c-2.897 0-5.267 2.371-5.267 5.266 0 2.897 2.37 5.267 5.267 5.267h60.433c2.896 0 5.266-2.37 5.266-5.267 0-2.895-2.37-5.266-5.266-5.266" fill="#44B87B"/><path d="M66.518 15.026H6.085c-2.897 0-5.267 2.371-5.267 5.266 0 2.897 2.37 5.267 5.267 5.267h60.433c2.896 0 5.266-2.37 5.266-5.267 0-2.895-2.37-5.266-5.266-5.266z" stroke="#000" stroke-width="1.5" stroke-linecap="round" stroke-linejoin="round"/><path d="M41.199 148.032l-4.898-9.925 6.573-.004-1.675 9.929" fill="#000"/><path d="M41.199 148.032l-4.898-9.925 6.573-.004-1.675 9.929z" stroke="#000" stroke-width="1.5" stroke-linecap="round" stroke-linejoin="round"/><path d="M129.844 175.675H42.88l-.006-37.571-19.142.012-8.378-117.61L142.201 6.65l-12.357 169.025" fill="#44B87B"/><path d="M129.844 175.675H42.88l-.006-37.571-19.142.012-8.378-117.61L142.201 6.65l-12.357 169.025z" stroke="#000" stroke-width="1.5" stroke-linecap="round" stroke-linejoin="round"/><path d="M129.844 175.675H66.085L72.826 6.65h69.375l-12.357 169.025" fill="#15A65A"/><path d="M129.844 175.675H66.085L72.826 6.65h69.375l-12.357 169.025z" stroke="#000" stroke-width="1.5" stroke-linecap="round" stroke-linejoin="round"/><path d="M142.435 25.559H20.407a5.053 5.053 0 0 1-5.053-5.053v-8.804a5.052 5.052 0 0 1 5.053-5.052h122.028a5.052 5.052 0 0 1 5.053 5.052v8.804a5.053 5.053 0 0 1-5.053 5.053" fill="#14A65A"/><path d="M142.435 25.559H20.407a5.053 5.053 0 0 1-5.053-5.053v-8.804a5.052 5.052 0 0 1 5.053-5.052h122.028a5.052 5.052 0 0 1 5.053 5.052v8.804a5.053 5.053 0 0 1-5.053 5.053z" stroke="#000" stroke-width="1.5" stroke-linecap="round" stroke-linejoin="round"/><path d="M34.044 138.135V107.72" fill="#E6E7E8"/><path d="M34.044 138.135V107.72M29.043 138.105c5 0 5-2.399 5-6.232" stroke="#000" stroke-width="1.5" stroke-linecap="round" stroke-linejoin="round"/><path d="M59.302 175.652c6.783 0 6.939-3.883 7.12-8.416 0 8.44 6.609 8.44 14.999 8.44 8.389 0 13.723-4.22 27.39-4.22 13.666 0 11.732 4.22 21.033 4.22" fill="#000"/><path d="M59.302 175.652c6.783 0 6.939-3.883 7.12-8.416 0 8.44 6.609 8.44 14.999 8.44 8.389 0 13.723-4.22 27.39-4.22 13.666 0 11.732 4.22 21.033 4.22M71.827 31.688c.244-6.129-5.742-6.129-5.742-6.129" stroke="#000" stroke-width="1.5" stroke-linecap="round" stroke-linejoin="round"/><path d="M39.395 143.587c-2.217-3.49-5.108-5.294-8.031-5.452v-.031h-6.996v3.09a15.212 15.212 0 0 0-1.862 2.393c-4.646 7.309-4.646 19.272 0 26.583a15.202 15.202 0 0 0 1.862 2.392v3.113h6.996v-.053c2.923-.158 5.814-1.962 8.031-5.452 4.646-7.311 4.646-19.274 0-26.583" fill="#393A3A"/><path d="M39.395 143.587c-2.217-3.49-5.108-5.294-8.031-5.452v-.031h-6.996v3.09a15.212 15.212 0 0 0-1.862 2.393c-4.646 7.309-4.646 19.272 0 26.583a15.202 15.202 0 0 0 1.862 2.392v3.113h6.996v-.053c2.923-.158 5.814-1.962 8.031-5.452 4.646-7.311 4.646-19.274 0-26.583z" stroke="#000" stroke-width="1.5" stroke-linecap="round" stroke-linejoin="round"/><path d="M15.924 170.17c-4.646-7.311-4.646-19.274 0-26.583 4.644-7.311 12.246-7.311 16.891 0 4.644 7.309 4.644 19.272 0 26.583-4.645 7.31-12.247 7.31-16.891 0" fill="#747474"/><path d="M15.924 170.17c-4.646-7.311-4.646-19.274 0-26.583 4.644-7.311 12.246-7.311 16.891 0 4.644 7.309 4.644 19.272 0 26.583-4.645 7.31-12.247 7.31-16.891 0z" stroke="#000" stroke-width="1.5" stroke-linecap="round" stroke-linejoin="round"/><path d="M21.967 160.658c-1.321-2.079-1.321-5.481 0-7.559 1.321-2.079 3.482-2.079 4.804 0 1.32 2.078 1.32 5.48 0 7.559-1.322 2.079-3.483 2.079-4.804 0" fill="#000"/><path d="M21.967 160.658c-1.321-2.079-1.321-5.481 0-7.559 1.321-2.079 3.482-2.079 4.804 0 1.32 2.078 1.32 5.48 0 7.559-1.322 2.079-3.483 2.079-4.804 0z" stroke="#000" stroke-width="1.5" stroke-linecap="round" stroke-linejoin="round"/><path d="M20.927 1.027H136.63V6.65H20.927V1.027z" fill="#44B87B"/><path d="M20.927 6.65H136.63V1.027H20.927V6.65z" stroke="#000" stroke-width="1.5" stroke-linecap="round" stroke-linejoin="round"/><path d="M68.317 1.027h68.313V6.65H68.317V1.027z" fill="#14A65A"/><path d="M68.317 6.65h68.313V1.027H68.317V6.65z" stroke="#000" stroke-width="1.5" stroke-linecap="round" stroke-linejoin="round"/><path d="M66.92 25.559H20.507c-2.834 0-5.153-2.319-5.153-5.153v-8.603c0-2.834 2.319-5.153 5.153-5.153H66.92c2.834 0 5.151 2.319 5.151 5.153v8.603c0 2.834-2.317 5.153-5.151 5.153" fill="#44B87B"/><path d="M66.92 25.559H20.507c-2.834 0-5.153-2.319-5.153-5.153v-8.603c0-2.834 2.319-5.153 5.153-5.153H66.92c2.834 0 5.151 2.319 5.151 5.153v8.603c0 2.834-2.317 5.153-5.151 5.153z" stroke="#000" stroke-width="1.5" stroke-linecap="round" stroke-linejoin="round"/><path d="M72.072 11.802a5.152 5.152 0 0 1 5.152-5.152h1.553-5.951s-.754.649-.754 5.152" fill="#5AB55C"/><path d="M72.072 11.802a5.152 5.152 0 0 1 5.152-5.152h1.553-5.951s-.754.649-.754 5.152z" stroke="#000" stroke-width="1.5" stroke-linecap="round" stroke-linejoin="round"/><path d="M75.425 25.559c13.886 0 13.136 3.063 36.635 3.063 23.5 0 18.017-3.063 28.759-3.063H75.425" fill="#000"/><path d="M75.425 25.559c13.886 0 13.136 3.063 36.635 3.063 23.5 0 18.017-3.063 28.759-3.063H75.425zm58.552 150.116H9.233h124.744z" stroke="#000" stroke-width="1.5" stroke-linecap="round" stroke-linejoin="round"/><path d="M18.062 58.514C16.657 38.795 6.085 43.577 6.085 25.559h9.629l2.348 32.955" fill="#44B87B"/><path d="M18.062 58.514C16.657 38.795 6.085 43.577 6.085 25.559h9.629l2.348 32.955z" stroke="#000" stroke-width="1.5" stroke-linecap="round" stroke-linejoin="round"/><path d="M96.663 162.039V146.52s.349-8.384-6.651-8.384c6.651 8.384 6.651 13.307 6.651 23.903" fill="#000"/><path d="M96.663 162.039V146.52s.349-8.384-6.651-8.384c6.651 8.384 6.651 13.307 6.651 23.903zm16.849 0v-16.834c0-6.583 4.763-7.102 4.763-7.102l-4.763 23.936z" stroke="#000" stroke-width="1.5" stroke-linecap="round" stroke-linejoin="round"/></g></svg>