<svg width="149" height="177" viewBox="0 0 149 177" xmlns="http://www.w3.org/2000/svg"><title>bin-black</title><g fill="none" fill-rule="evenodd"><path d="M24.75 150.087h18.511v25.588H24.75v-25.588z" fill="#000"/><path d="M24.75 175.675h18.511v-25.588H24.75v25.588z" stroke="#000" stroke-width="1.5" stroke-linecap="round" stroke-linejoin="round"/><path d="M66.899 15.026H6.466c-2.896 0-5.266 2.371-5.266 5.266 0 2.897 2.37 5.267 5.266 5.267h60.433c2.896 0 5.266-2.37 5.266-5.267 0-2.895-2.37-5.266-5.266-5.266" fill="#333"/><path d="M66.899 15.026H6.466c-2.896 0-5.266 2.371-5.266 5.266 0 2.897 2.37 5.267 5.266 5.267h60.433c2.896 0 5.266-2.37 5.266-5.267 0-2.895-2.37-5.266-5.266-5.266z" stroke="#000" stroke-width="1.5" stroke-linecap="round" stroke-linejoin="round"/><path d="M41.58 148.032l-4.897-9.925 6.572-.004-1.675 9.929" fill="#000"/><path d="M41.58 148.032l-4.897-9.925 6.572-.004-1.675 9.929z" stroke="#000" stroke-width="1.5" stroke-linecap="round" stroke-linejoin="round"/><path d="M130.226 175.675H43.261l-.006-37.571-19.141.012-8.378-117.61L142.583 6.65l-12.357 169.025" fill="#747474"/><path d="M130.226 175.675H43.261l-.006-37.571-19.141.012-8.378-117.61L142.583 6.65l-12.357 169.025z" stroke="#000" stroke-width="1.5" stroke-linecap="round" stroke-linejoin="round"/><path d="M130.226 175.675h-63.76L73.207 6.65h69.376l-12.357 169.025" fill="#515353"/><path d="M130.226 175.675h-63.76L73.207 6.65h69.376l-12.357 169.025z" stroke="#000" stroke-width="1.5" stroke-linecap="round" stroke-linejoin="round"/><path d="M142.816 25.559H20.789a5.053 5.053 0 0 1-5.054-5.053v-8.804a5.053 5.053 0 0 1 5.054-5.052h122.027a5.054 5.054 0 0 1 5.054 5.052v8.804a5.054 5.054 0 0 1-5.054 5.053" fill="#1A1919"/><path d="M142.816 25.559H20.789a5.053 5.053 0 0 1-5.054-5.053v-8.804a5.053 5.053 0 0 1 5.054-5.052h122.027a5.054 5.054 0 0 1 5.054 5.052v8.804a5.054 5.054 0 0 1-5.054 5.053z" stroke="#000" stroke-width="1.5" stroke-linecap="round" stroke-linejoin="round"/><path d="M34.425 138.135V107.72" fill="#E6E7E8"/><path d="M34.425 138.135V107.72" stroke="#000" stroke-width="1.5" stroke-linecap="round" stroke-linejoin="round"/><path d="M29.425 138.105c5 0 5-2.399 5-6.232" fill="#747474"/><path d="M29.425 138.105c5 0 5-2.399 5-6.232" stroke="#000" stroke-width="1.5" stroke-linecap="round" stroke-linejoin="round"/><path d="M59.684 175.652c6.783 0 6.938-3.883 7.12-8.416 0 8.44 6.608 8.44 14.999 8.44 8.389 0 13.722-4.22 27.389-4.22s11.733 4.22 21.034 4.22" fill="#000"/><path d="M59.684 175.652c6.783 0 6.938-3.883 7.12-8.416 0 8.44 6.608 8.44 14.999 8.44 8.389 0 13.722-4.22 27.389-4.22s11.733 4.22 21.034 4.22" stroke="#000" stroke-width="1.5" stroke-linecap="round" stroke-linejoin="round"/><path d="M72.209 31.688c.244-6.129-5.742-6.129-5.742-6.129" fill="#747474"/><path d="M72.209 31.688c.244-6.129-5.742-6.129-5.742-6.129" stroke="#000" stroke-width="1.5" stroke-linecap="round" stroke-linejoin="round"/><path d="M39.777 143.587c-2.218-3.49-5.109-5.294-8.031-5.452v-.031H24.75v3.09a15.156 15.156 0 0 0-1.863 2.393c-4.645 7.309-4.645 19.272 0 26.583a15.147 15.147 0 0 0 1.863 2.392v3.113h6.996v-.053c2.922-.158 5.813-1.962 8.031-5.452 4.645-7.311 4.645-19.274 0-26.583" fill="#393A3A"/><path d="M39.777 143.587c-2.218-3.49-5.109-5.294-8.031-5.452v-.031H24.75v3.09a15.156 15.156 0 0 0-1.863 2.393c-4.645 7.309-4.645 19.272 0 26.583a15.147 15.147 0 0 0 1.863 2.392v3.113h6.996v-.053c2.922-.158 5.813-1.962 8.031-5.452 4.645-7.311 4.645-19.274 0-26.583z" stroke="#000" stroke-width="1.5" stroke-linecap="round" stroke-linejoin="round"/><path d="M16.305 170.17c-4.645-7.311-4.645-19.274 0-26.583 4.645-7.311 12.246-7.311 16.891 0 4.644 7.309 4.644 19.272 0 26.583-4.645 7.31-12.246 7.31-16.891 0" fill="#747474"/><path d="M16.305 170.17c-4.645-7.311-4.645-19.274 0-26.583 4.645-7.311 12.246-7.311 16.891 0 4.644 7.309 4.644 19.272 0 26.583-4.645 7.31-12.246 7.31-16.891 0z" stroke="#000" stroke-width="1.5" stroke-linecap="round" stroke-linejoin="round"/><path d="M22.349 160.658c-1.322-2.079-1.322-5.481 0-7.559 1.321-2.079 3.481-2.079 4.802 0 1.322 2.078 1.322 5.48 0 7.559-1.321 2.079-3.481 2.079-4.802 0" fill="#000"/><path d="M22.349 160.658c-1.322-2.079-1.322-5.481 0-7.559 1.321-2.079 3.481-2.079 4.802 0 1.322 2.078 1.322 5.48 0 7.559-1.321 2.079-3.481 2.079-4.802 0z" stroke="#000" stroke-width="1.5" stroke-linecap="round" stroke-linejoin="round"/><path d="M21.308 1.027h115.703V6.65H21.308V1.027z" fill="#333"/><path d="M21.308 6.65h115.703V1.027H21.308V6.65z" stroke="#000" stroke-width="1.5" stroke-linecap="round" stroke-linejoin="round"/><path d="M68.698 1.027h68.312V6.65H68.698V1.027z" fill="#1A1919"/><path d="M68.698 6.65h68.312V1.027H68.698V6.65z" stroke="#000" stroke-width="1.5" stroke-linecap="round" stroke-linejoin="round"/><path d="M67.301 25.559H20.888c-2.834 0-5.152-2.319-5.152-5.153v-8.603c0-2.834 2.318-5.153 5.152-5.153h46.413c2.834 0 5.152 2.319 5.152 5.153v8.603c0 2.834-2.318 5.153-5.152 5.153" fill="#333"/><path d="M67.301 25.559H20.888c-2.834 0-5.152-2.319-5.152-5.153v-8.603c0-2.834 2.318-5.153 5.152-5.153h46.413c2.834 0 5.152 2.319 5.152 5.153v8.603c0 2.834-2.318 5.153-5.152 5.153z" stroke="#000" stroke-width="1.5" stroke-linecap="round" stroke-linejoin="round"/><path d="M79.159 6.65h-1.554a5.152 5.152 0 0 0-5.152 5.152V6.65h6.706" fill="#1D1D1D"/><path d="M79.159 6.65h-1.554a5.152 5.152 0 0 0-5.152 5.152V6.65h6.706z" stroke="#000" stroke-width="1.5" stroke-linecap="round" stroke-linejoin="round"/><path d="M75.807 25.559c13.885 0 13.135 3.063 36.635 3.063s18.016-3.063 28.758-3.063H75.807" fill="#000"/><path d="M75.807 25.559c13.885 0 13.135 3.063 36.635 3.063s18.016-3.063 28.758-3.063H75.807zm58.551 150.116H9.615h124.743z" stroke="#000" stroke-width="1.5" stroke-linecap="round" stroke-linejoin="round"/><path d="M18.443 58.514C17.038 38.795 6.467 43.577 6.467 25.559h9.629l2.347 32.955" fill="#747474"/><path d="M18.443 58.514C17.038 38.795 6.467 43.577 6.467 25.559h9.629l2.347 32.955z" stroke="#000" stroke-width="1.5" stroke-linecap="round" stroke-linejoin="round"/><path d="M97.045 162.039V146.52s.349-8.384-6.651-8.384c6.651 8.384 6.651 17.695 6.651 23.903" fill="#000"/><path d="M97.045 162.039V146.52s.349-8.384-6.651-8.384c6.651 8.384 6.651 17.695 6.651 23.903zm16.849 0v-16.834c0-6.583 4.762-7.102 4.762-7.102l-4.762 23.936z" stroke="#000" stroke-width="1.5" stroke-linecap="round" stroke-linejoin="round"/></g></svg>