<svg width="149" height="177" viewBox="0 0 149 177" xmlns="http://www.w3.org/2000/svg"><title>bin-all-blue</title><g fill="none" fill-rule="evenodd"><path d="M26.92 153.099h16.109v22.577H26.92v-22.577z" fill="#000"/><path d="M26.92 153.099h16.109v22.577H26.92v-22.577z" stroke="#000" stroke-width="1.5" stroke-linecap="round" stroke-linejoin="round"/><path d="M66.667 15.026H6.234c-2.896 0-5.265 2.371-5.265 5.266 0 2.897 2.369 5.267 5.265 5.267h60.433c2.896 0 5.267-2.37 5.267-5.267 0-2.895-2.371-5.266-5.267-5.266" fill="#337BA6"/><path d="M66.667 15.026H6.234c-2.896 0-5.265 2.371-5.265 5.266 0 2.897 2.369 5.267 5.265 5.267h60.433c2.896 0 5.267-2.37 5.267-5.267 0-2.895-2.371-5.266-5.267-5.266z" stroke="#000" stroke-width="1.5" stroke-linecap="round" stroke-linejoin="round"/><path d="M41.349 148.032l-4.898-9.925 6.572-.004-1.674 9.929" fill="#000"/><path d="M41.349 148.032l-4.898-9.925 6.572-.004-1.674 9.929z" stroke="#000" stroke-width="1.5" stroke-linecap="round" stroke-linejoin="round"/><path d="M129.993 175.675H43.029l-.006-37.571-19.141.012-8.378-117.61L142.352 6.65l-12.359 169.025" fill="#337BA6"/><path d="M129.993 175.675H43.029l-.006-37.571-19.141.012-8.378-117.61L142.352 6.65l-12.359 169.025z" stroke="#000" stroke-width="1.5" stroke-linecap="round" stroke-linejoin="round"/><path d="M129.993 175.675H66.234L72.976 6.65h69.376l-12.359 169.025" fill="#005A90"/><path d="M129.993 175.675H66.234L72.976 6.65h69.376l-12.359 169.025z" stroke="#000" stroke-width="1.5" stroke-linecap="round" stroke-linejoin="round"/><path d="M142.585 25.559H20.557a5.053 5.053 0 0 1-5.053-5.053v-8.804a5.052 5.052 0 0 1 5.053-5.052h122.028a5.053 5.053 0 0 1 5.053 5.052v8.804a5.053 5.053 0 0 1-5.053 5.053" fill="#005A90"/><path d="M142.585 25.559H20.557a5.053 5.053 0 0 1-5.053-5.053v-8.804a5.052 5.052 0 0 1 5.053-5.052h122.028a5.053 5.053 0 0 1 5.053 5.052v8.804a5.053 5.053 0 0 1-5.053 5.053z" stroke="#000" stroke-width="1.5" stroke-linecap="round" stroke-linejoin="round"/><path d="M34.193 138.135V107.72" fill="#E6E7E8"/><path d="M34.193 138.135V107.72M29.193 138.105c5 0 5-2.399 5-6.232" stroke="#000" stroke-width="1.5" stroke-linecap="round" stroke-linejoin="round"/><path d="M59.452 175.652c6.782 0 6.939-3.883 7.12-8.416 0 8.44 6.609 8.44 14.999 8.44 8.389 0 13.722-4.22 27.389-4.22s11.732 4.22 21.034 4.22" fill="#000"/><path d="M59.452 175.652c6.782 0 6.939-3.883 7.12-8.416 0 8.44 6.609 8.44 14.999 8.44 8.389 0 13.722-4.22 27.389-4.22s11.732 4.22 21.034 4.22M71.977 31.688c.244-6.129-5.742-6.129-5.742-6.129" stroke="#000" stroke-width="1.5" stroke-linecap="round" stroke-linejoin="round"/><path d="M39.545 143.587c-2.218-3.49-5.109-5.294-8.031-5.452v-.031h-6.996v3.09a15.156 15.156 0 0 0-1.863 2.393c-4.645 7.309-4.645 19.272 0 26.583a15.147 15.147 0 0 0 1.863 2.392v3.113h6.996v-.053c2.922-.158 5.813-1.962 8.031-5.452 4.645-7.311 4.645-19.274 0-26.583" fill="#393A3A"/><path d="M39.545 143.587c-2.218-3.49-5.109-5.294-8.031-5.452v-.031h-6.996v3.09a15.156 15.156 0 0 0-1.863 2.393c-4.645 7.309-4.645 19.272 0 26.583a15.147 15.147 0 0 0 1.863 2.392v3.113h6.996v-.053c2.922-.158 5.813-1.962 8.031-5.452 4.645-7.311 4.645-19.274 0-26.583z" stroke="#000" stroke-width="1.5" stroke-linecap="round" stroke-linejoin="round"/><path d="M16.073 170.17c-4.645-7.311-4.645-19.274 0-26.583 4.645-7.311 12.246-7.311 16.891 0 4.644 7.309 4.644 19.272 0 26.583-4.645 7.31-12.246 7.31-16.891 0" fill="#747474"/><path d="M16.073 170.17c-4.645-7.311-4.645-19.274 0-26.583 4.645-7.311 12.246-7.311 16.891 0 4.644 7.309 4.644 19.272 0 26.583-4.645 7.31-12.246 7.31-16.891 0z" stroke="#000" stroke-width="1.5" stroke-linecap="round" stroke-linejoin="round"/><path d="M22.117 160.658c-1.321-2.079-1.321-5.481 0-7.559 1.321-2.079 3.482-2.079 4.803 0 1.321 2.078 1.321 5.48 0 7.559-1.321 2.079-3.482 2.079-4.803 0" fill="#000"/><path d="M22.117 160.658c-1.321-2.079-1.321-5.481 0-7.559 1.321-2.079 3.482-2.079 4.803 0 1.321 2.078 1.321 5.48 0 7.559-1.321 2.079-3.482 2.079-4.803 0z" stroke="#000" stroke-width="1.5" stroke-linecap="round" stroke-linejoin="round"/><path d="M21.076 1.027h115.703V6.65H21.076V1.027z" fill="#337BA6"/><path d="M21.076 6.65h115.703V1.027H21.076V6.65z" stroke="#000" stroke-width="1.5" stroke-linecap="round" stroke-linejoin="round"/><path d="M68.466 1.027h68.313V6.65H68.466V1.027z" fill="#005A90"/><path d="M68.466 6.65h68.313V1.027H68.466V6.65z" stroke="#000" stroke-width="1.5" stroke-linecap="round" stroke-linejoin="round"/><path d="M67.069 25.559H20.656c-2.834 0-5.152-2.319-5.152-5.153v-8.603c0-2.834 2.318-5.153 5.152-5.153h46.413c2.834 0 5.152 2.319 5.152 5.153v8.603c0 2.834-2.318 5.153-5.152 5.153" fill="#337BA6"/><path d="M67.069 25.559H20.656c-2.834 0-5.152-2.319-5.152-5.153v-8.603c0-2.834 2.318-5.153 5.152-5.153h46.413c2.834 0 5.152 2.319 5.152 5.153v8.603c0 2.834-2.318 5.153-5.152 5.153z" stroke="#000" stroke-width="1.5" stroke-linecap="round" stroke-linejoin="round"/><path d="M72.221 11.802a5.153 5.153 0 0 1 5.153-5.152h1.553-5.951s-.755.649-.755 5.152" fill="#5AB55C"/><path d="M72.221 11.802a5.153 5.153 0 0 1 5.153-5.152h1.553-5.951s-.755.649-.755 5.152z" stroke="#000" stroke-width="1.5" stroke-linecap="round" stroke-linejoin="round"/><path d="M75.575 25.559c13.885 0 13.135 3.063 36.635 3.063s18.017-3.063 28.759-3.063H75.575" fill="#000"/><path d="M75.575 25.559c13.885 0 13.135 3.063 36.635 3.063s18.017-3.063 28.759-3.063H75.575zm58.552 150.116H9.383h124.744z" stroke="#000" stroke-width="1.5" stroke-linecap="round" stroke-linejoin="round"/><path d="M18.212 58.514C16.807 38.795 6.235 43.577 6.235 25.559h9.629l2.348 32.955" fill="#337BA6"/><path d="M18.212 58.514C16.807 38.795 6.235 43.577 6.235 25.559h9.629l2.348 32.955z" stroke="#000" stroke-width="1.5" stroke-linecap="round" stroke-linejoin="round"/><path d="M96.812 162.039V146.52s.35-8.384-6.65-8.384c6.65 8.384 6.65 13.307 6.65 23.903" fill="#000"/><path d="M96.812 162.039V146.52s.35-8.384-6.65-8.384c6.65 8.384 6.65 13.307 6.65 23.903zm16.85 0v-16.834c0-6.583 4.763-7.102 4.763-7.102l-4.763 23.936z" stroke="#000" stroke-width="1.5" stroke-linecap="round" stroke-linejoin="round"/></g></svg>